<svg width="800px" height="800px" viewBox="0 0 80 80" fill="none" xmlns="http://www.w3.org/2000/svg">

<defs>
  <linearGradient id="slonGold" x1="0%" y1="0%" x2="0%" y2="100%">
    <stop offset="0%" stop-color="#F5E3A4"/>
    <stop offset="50%" stop-color="#D4AF37"/>
    <stop offset="100%" stop-color="#8C6A1F"/>
  </linearGradient>
</defs>

<!-- Всі елементи перефарбовані в один золотий градієнт -->
<g fill="url(#slonGold)">
  <path d="M35.5919 42.3602C33.464 45.5087 30.4456 47.1873 28.8497 46.1076C27.2538 45.0279 27.6872 41.6036 29.8151 38.4552C31.943 35.3067 34.9614 33.628 36.5573 34.7077C38.1532 35.7874 37.7197 39.2117 35.5919 42.3602Z"/>
  <path d="M61.4141 60.6601C57.1583 60.6601 56.9771 63.9189 51.9056 63.9189C46.8342 63.9189 44.1192 61.8343 39.4103 59.0287C35.4816 56.688 30.8673 57.1727 28.4438 56.6841L31.6987 57.9726C31.6987 57.9726 33.6374 62.2836 38.7483 64.8528C46.1565 68.5805 54.932 64.2893 58.7464 64.5493C63.4947 64.8764 69.37 65.9128 70.4615 65.83C69.9217 65.4005 69.4725 60.6601 61.4141 60.6601Z"/>
  <path d="M17.9895 50.6113L10.0927 62.0112C9.40709 63.0003 7.35408 68.1269 6.06553 71.4172C5.75817 72.2053 6.59751 72.7846 7.22405 72.2172C9.80903 69.8962 13.8284 66.267 14.7898 65.2622L23.1792 53.1569C20.7833 53.1096 18.75 52.491 17.9895 50.6113Z"/>
  <path d="M28.424 62.9256C31.5646 66.4288 34.3387 67.3311 36.9355 67.3311C39.5323 67.3311 40.0761 66.0623 39.5323 65.1284C38.9885 64.1945 37.4202 62.3227 34.9456 61.9602C32.4709 61.5977 30.3588 55.9824 30.3588 55.9824L27.2813 55.9233L24.385 59.5447L28.424 62.9256Z"/>
  <path d="M23.049 63.4695C23.9554 66.6101 27.6988 68.8404 30.2917 68.6001C31.9152 68.4503 32.3447 65.9442 30.4139 64.0133C28.483 62.0825 27.2693 58.7488 27.2693 58.7488L25.5237 53.3306L22.8087 60.2738L21.0591 64.0172L23.049 63.4695Z"/>
  <path d="M16.5474 62.6143C16.5474 65.42 20.0899 68.5999 22.2059 68.5999C24.322 68.5999 24.3811 65.7628 24.0186 64.6752C23.656 63.5876 23.1241 61.1957 23.1241 61.1957L21.3036 60.0254L16.5474 62.6143Z"/>
  <path d="M12.8472 58.3387C12.922 61.5226 15.8656 62.8348 18.2181 62.8348C20.5706 62.8348 25.5474 60.0134 27.2655 58.7446C28.9875 57.4757 34.6973 56.2227 39.4062 59.0283C44.1151 61.8339 46.8302 63.9185 51.9016 63.9185C56.9731 63.9185 57.1543 60.6597 61.4101 60.6597C70.3747 60.6597 69.9216 66.5468 70.6466 65.8217C71.3717 65.0967 73.9961 59.0322 73.9961 53.2357C73.9961 49.4016 73.0819 47.3683 72.4671 45.4572C72.1952 44.6139 71.3678 44.1174 70.489 44.2238C64.1842 44.9843 54.8452 37.2373 48.4616 34.1282C41.5814 30.7787 35.9662 27.248 31.801 27.248C27.6359 27.248 14.1436 34.7626 12.4216 36.4846C10.6996 38.2066 9.97847 40.1966 9.97847 42.6436C9.97847 45.0907 8.43774 50.8833 8.43774 55.8641C8.43774 59.8479 9.42286 61.3374 10.8336 60.4823C11.1882 60.2656 11.5704 59.9031 11.9684 59.3948C12.0945 59.249 12.8511 58.5751 12.8472 58.3387Z"/>
  <path d="M52.6188 9.5435C52.3232 9.03911 51.8189 8.34558 51.082 7.83331C50.3491 7.32499 49.5412 7.10826 48.9738 7.01369C48.5522 6.94276 48.103 7.1516 47.8311 7.54566L17.9856 50.6115C18.0132 50.6825 18.0565 50.7376 18.088 50.8046C18.2772 50.6628 18.4506 50.5091 18.6319 50.3633L18.5333 50.4815C21.5597 48.2393 24.0816 46.4228 28.6605 44.819L30.9026 42.0094L52.5242 10.8084C52.804 10.4143 52.8395 9.9139 52.6188 9.5435Z"/>
</g>

</svg>
